<?xml version="1.0" encoding="UTF-8"?>
<svg id="Layer_2" data-name="Layer 2" xmlns="http://www.w3.org/2000/svg" xmlns:xlink="http://www.w3.org/1999/xlink" viewBox="0 0 378.55 61.01">
  <defs>
    <style>
      .cls-1, .cls-2 {
        fill: #3d94ff;
      }

      .cls-1, .cls-3 {
        fill-rule: evenodd;
      }

      .cls-4, .cls-5, .cls-3 {
        fill: #1e3050;
      }

      .cls-5 {
        font-family: SegoeUI-Bold, 'Segoe UI';
        font-size: 15px;
      }

      .cls-5, .cls-6 {
        isolation: isolate;
      }

      .cls-7 {
        clip-path: url(#clippath);
      }

      .cls-8 {
        fill: none;
      }
    </style>
    <clipPath id="clippath">
      <rect class="cls-8" y="0" width="74.45" height="61"/>
    </clipPath>
  </defs>
  <g id="Layer_1-2" data-name="Layer 1">
    <g>
      <g id="Group_32" data-name="Group 32">
        <g class="cls-7">
          <g id="Group_31" data-name="Group 31">
            <path id="Path_1" data-name="Path 1" class="cls-3" d="M9.88,42.96c-.1,0-.17,0-.21-.01-2.81-.24-5.28-1.94-6.53-4.46-.08,.01-.15,.02-.23,.02-1.61,0-2.91-2.77-2.91-6.18s1.25-6.06,2.8-6.18c.81-2.39,2.93-4.09,5.44-4.38C12.89,5.76,29.64-3.45,45.65,1.21c9.92,2.88,17.67,10.64,20.56,20.56,2.51,.28,4.62,1.99,5.44,4.38,1.56,.12,2.8,2.84,2.8,6.18s-1.3,6.18-2.91,6.18c-.08,0-.15,0-.23-.02-1.25,2.53-3.72,4.22-6.53,4.46-.53,.09-1.07-.05-1.49-.38-.23-.46-.26-1-.09-1.48,2.01-4.79,2.47-11.01,.83-19.19C59.45,7.09,43.73-1.2,28.92,3.38c-8.85,2.74-15.78,9.67-18.51,18.51-1.12,4.84-1.29,9.85-.5,14.75,1.33,5.61,4.35,10.67,8.66,14.49,.8-.36,1.73-.25,2.43,.28,1.76,1.35,3.69,2.47,5.73,3.35,1.22,.52,1.78,1.93,1.26,3.14-.52,1.22-1.93,1.78-3.14,1.26-2.4-1.03-4.67-2.36-6.74-3.95-.75-.57-1.09-1.53-.88-2.44-3.09-2.74-5.59-6.08-7.34-9.82Z"/>
            <path id="Path_2" data-name="Path 2" class="cls-1" d="M33.45,54.4c-13.4-2.05-22.6-14.57-20.55-27.96C14.94,13.04,27.46,3.84,40.86,5.88c13.4,2.05,22.6,14.57,20.55,27.96-1.62,10.61-9.95,18.93-20.55,20.55-1.1,2.28-2.34,4.48-3.71,6.61-1.37-2.13-2.6-4.33-3.71-6.61m15.27-27.87c-1.9,0-3.44,1.54-3.44,3.44,0,1.9,1.54,3.44,3.44,3.44s3.44-1.54,3.44-3.44h0c0-1.9-1.54-3.44-3.44-3.44m-23.12,0c-1.9,0-3.44,1.54-3.44,3.44,0,1.9,1.54,3.44,3.44,3.44s3.44-1.54,3.44-3.44h0c0-1.9-1.54-3.44-3.44-3.44m11.56,0c-1.9,0-3.44,1.54-3.44,3.44,0,1.9,1.54,3.44,3.44,3.44s3.44-1.54,3.44-3.44h0c0-1.9-1.54-3.44-3.44-3.44"/>
          </g>
        </g>
      </g>
      <g>
        <g class="cls-6">
          <path class="cls-4" d="M118.28,46.01c-2.04,.99-4.71,1.48-8.01,1.48-4.3,0-7.68-1.26-10.14-3.79s-3.69-5.89-3.69-10.1c0-4.48,1.38-8.11,4.15-10.9,2.77-2.79,6.36-4.18,10.77-4.18,2.73,0,5.04,.34,6.91,1.04v6.07c-1.88-1.12-4.01-1.68-6.41-1.68-2.63,0-4.75,.83-6.37,2.48-1.61,1.65-2.42,3.89-2.42,6.72s.76,4.87,2.29,6.47,3.57,2.41,6.15,2.41,4.71-.6,6.76-1.8v5.76Z"/>
          <path class="cls-4" d="M147.79,47.01h-6.88l-1.99-6.23h-9.96l-1.97,6.23h-6.84l10.2-28.01h7.48l9.96,28.01Zm-10.31-11.07l-3.01-9.41c-.22-.7-.38-1.54-.47-2.52h-.16c-.07,.82-.23,1.63-.49,2.44l-3.05,9.49h7.17Z"/>
          <path class="cls-4" d="M174.79,47.01h-7.25l-4.36-7.21c-.33-.55-.64-1.04-.94-1.46-.3-.43-.6-.8-.91-1.1-.31-.31-.63-.54-.96-.7s-.69-.24-1.08-.24h-1.7v10.72h-6.31V19h10c6.8,0,10.2,2.54,10.2,7.62,0,.98-.15,1.88-.45,2.71-.3,.83-.72,1.57-1.27,2.24s-1.21,1.24-1.98,1.72c-.77,.48-1.64,.86-2.59,1.13v.08c.42,.13,.82,.34,1.21,.63s.77,.63,1.13,1.03c.36,.39,.71,.81,1.04,1.26s.63,.89,.91,1.32l5.29,8.28Zm-17.19-23.28v7.79h2.73c1.35,0,2.44-.39,3.26-1.17,.83-.79,1.25-1.78,1.25-2.95,0-2.45-1.46-3.67-4.39-3.67h-2.85Z"/>
          <path class="cls-4" d="M194.2,47.01h-16.8V19h16.15v5.14h-9.84v6.23h9.16v5.12h-9.16v6.41h10.49v5.12Z"/>
        </g>
        <text class="cls-5" transform="translate(195.49 47.01)"><tspan x="0" y="0"> </tspan></text>
        <g class="cls-6">
          <path class="cls-2" d="M222.36,45.84c-2.07,1.09-4.65,1.64-7.73,1.64-3.98,0-7.18-1.28-9.57-3.85-2.4-2.57-3.59-5.93-3.59-10.1,0-4.48,1.35-8.1,4.04-10.86s6.11-4.14,10.25-4.14c2.66,0,4.86,.38,6.6,1.15v3.5c-2.01-1.12-4.22-1.68-6.64-1.68-3.22,0-5.82,1.07-7.82,3.22-2,2.15-3,5.02-3,8.61s.93,6.13,2.8,8.15c1.87,2.02,4.32,3.04,7.35,3.04,2.81,0,5.25-.63,7.3-1.88v3.18Z"/>
          <path class="cls-2" d="M238.28,47.48c-3.97,0-7.15-1.31-9.54-3.93-2.39-2.62-3.58-6.02-3.58-10.21,0-4.5,1.22-8.1,3.65-10.78,2.43-2.68,5.75-4.02,9.94-4.02,3.87,0,6.98,1.3,9.35,3.91s3.54,6.01,3.54,10.21c0,4.57-1.21,8.18-3.63,10.84s-5.66,3.98-9.73,3.98Zm.23-25.98c-2.94,0-5.33,1.06-7.17,3.18s-2.75,4.91-2.75,8.36,.89,6.23,2.69,8.33c1.79,2.1,4.12,3.15,7,3.15,3.07,0,5.49-1,7.27-3.01,1.77-2,2.66-4.81,2.66-8.42s-.86-6.56-2.58-8.57-4.09-3.03-7.11-3.03Z"/>
          <path class="cls-2" d="M279.72,47.01h-4.02l-14.41-22.32c-.37-.56-.66-1.15-.9-1.76h-.12c.1,.6,.16,1.88,.16,3.85v20.23h-3.28V19h4.26l14.02,21.97c.59,.91,.96,1.54,1.13,1.88h.08c-.13-.81-.2-2.18-.2-4.12V19h3.28v28.01Z"/>
          <path class="cls-2" d="M309.65,47.01h-4.02l-14.41-22.32c-.37-.56-.66-1.15-.9-1.76h-.12c.1,.6,.16,1.88,.16,3.85v20.23h-3.28V19h4.26l14.02,21.97c.59,.91,.96,1.54,1.13,1.88h.08c-.13-.81-.2-2.18-.2-4.12V19h3.28v28.01Z"/>
          <path class="cls-2" d="M331.83,47.01h-14.84V19h14.22v2.97h-10.94v9.32h10.12v2.95h-10.12v9.8h11.56v2.97Z"/>
          <path class="cls-2" d="M356.29,45.84c-2.07,1.09-4.65,1.64-7.73,1.64-3.98,0-7.18-1.28-9.57-3.85-2.4-2.57-3.59-5.93-3.59-10.1,0-4.48,1.35-8.1,4.04-10.86s6.11-4.14,10.25-4.14c2.66,0,4.86,.38,6.6,1.15v3.5c-2.01-1.12-4.22-1.68-6.64-1.68-3.22,0-5.82,1.07-7.82,3.22-2,2.15-3,5.02-3,8.61s.93,6.13,2.8,8.15c1.87,2.02,4.32,3.04,7.35,3.04,2.81,0,5.25-.63,7.3-1.88v3.18Z"/>
          <path class="cls-2" d="M378.55,21.97h-8.09v25.04h-3.28V21.97h-8.07v-2.97h19.43v2.97Z"/>
        </g>
      </g>
    </g>
  </g>
</svg>